<svg width="50" height="34" viewBox="0 0 50 34" fill="none" xmlns="http://www.w3.org/2000/svg">
<path d="M49.2159 20.1017L42.992 30.7713C42.5076 31.6016 41.8141 32.2905 40.9806 32.7693C40.147 33.2481 39.2025 33.5 38.2412 33.5H3.86934C2.27752 33.5 1.28571 31.7733 2.08777 30.3983L8.3117 19.7287C8.79607 18.8984 9.4896 18.2095 10.3232 17.7307C11.1567 17.2519 12.1012 17 13.0625 17H47.4344C49.0262 17 50.018 18.7267 49.2159 20.1017ZM13.0625 14.25H41.25V10.125C41.25 7.8468 39.4032 6 37.125 6H23.375L17.875 0.5H4.125C1.8468 0.5 0 2.3468 0 4.625V28.5196L5.93631 18.343C7.40902 15.8184 10.1397 14.25 13.0625 14.25Z" fill="url(#paint0_linear)"/>
<defs>
<linearGradient id="paint0_linear" x1="24.75" y1="0.5" x2="24.75" y2="33.5" gradientUnits="userSpaceOnUse">
<stop stop-color="#BF2E8C"/>
<stop offset="0.484375" stop-color="#5A4B9B"/>
<stop offset="1" stop-color="#4F658D"/>
</linearGradient>
</defs>
</svg>
